<svg xmlns="http://www.w3.org/2000/svg" version="1.1" height="600" width="960"><g></g><g transform="translate(480,300)scale(1.0033445358276367,1.0033445358276367)"><text style="font-size: 30px; font-family: Impact; fill: rgb(123, 65, 115);" transform="translate(237,87)rotate(-30.00000044529205)scale(0.9999999865388264,0.9999999865388264)" text-anchor="middle">TIME</text><text style="font-size: 29px; font-family: Impact; fill: rgb(165, 81, 148);" transform="translate(-92,-124)rotate(30.000000445292052)scale(0.9999999865388264,0.9999999865388264)" text-anchor="middle">one</text><text style="font-size: 100px; font-family: Impact; fill: rgb(82, 84, 163);" transform="translate(-212,-98)rotate(-30.000000445292052)scale(0.9999999865388264,0.9999999865388264)" text-anchor="middle"></text><text style="font-size: 29px; font-family: Impact; fill: rgb(107, 110, 207);" transform="translate(186,55)rotate(30.000000445292052)scale(0.9999999865388264,0.9999999865388264)" text-anchor="middle">Im</text><text style="font-size: 32px; font-family: Impact; fill: rgb(156, 158, 222);" transform="translate(300,-17)rotate(-30.00000044529205)scale(0.9999999865388264,0.9999999865388264)" text-anchor="middle">just</text><text style="font-size: 35px; font-family: Impact; fill: rgb(99, 121, 57);" transform="translate(-200,-144)rotate(-59.99999955470795)scale(0.9999999865388264,0.9999999865388264)" text-anchor="middle">like</text><text style="font-size: 35px; font-family: Impact; fill: rgb(140, 162, 82);" transform="translate(-139,16)rotate(-30.000000445292052)scale(0.9999999865388264,0.9999999865388264)" text-anchor="middle">dont</text><text style="font-size: 38px; font-family: Impact; fill: rgb(206, 219, 156);" transform="translate(155,148)rotate(59.99999955470795)scale(0.9999999865388264,0.9999999865388264)" text-anchor="middle">get</text><text style="font-size: 23px; font-family: Impact; fill: rgb(140, 109, 49);" transform="translate(-94,15)rotate(-30.00000044529205)scale(0.9999999865388264,0.9999999865388264)" text-anchor="middle">love</text><text style="font-size: 26px; font-family: Impact; fill: rgb(189, 158, 57);" transform="translate(-147,-174)rotate(0)scale(1,1)" text-anchor="middle">Go</text><text style="font-size: 29px; font-family: Impact; fill: rgb(231, 186, 82);" transform="translate(-200,123)rotate(-59.99999955470795)scale(0.9999999865388264,0.9999999865388264)" text-anchor="middle">know</text><text style="font-size: 23px; font-family: Impact; fill: rgb(231, 203, 148);" transform="translate(334,50)rotate(59.99999955470795)scale(0.9999999865388264,0.9999999865388264)" text-anchor="middle">got</text><text style="font-size: 30px; font-family: Impact; fill: rgb(132, 60, 57);" transform="translate(-184,-171)rotate(59.99999955470795)scale(0.9999999865388264,0.9999999865388264)" text-anchor="middle">good</text><text style="font-size: 32px; font-family: Impact; fill: rgb(173, 73, 74);" transform="translate(-88,-37)rotate(-59.99999955470795)scale(0.9999999865388264,0.9999999865388264)" text-anchor="middle">Now</text><text style="font-size: 27px; font-family: Impact; fill: rgb(214, 97, 107);" transform="translate(127,-180)rotate(30.00000044529205)scale(0.9999999865388264,0.9999999865388264)" text-anchor="middle">u</text><text style="font-size: 25px; font-family: Impact; fill: rgb(231, 150, 156);" transform="translate(-21,188)rotate(0)scale(1,1)" text-anchor="middle">cant</text><text style="font-size: 25px; font-family: Impact; fill: rgb(123, 65, 115);" transform="translate(136,177)rotate(-30.00000044529205)scale(0.9999999865388264,0.9999999865388264)" text-anchor="middle">need</text><text style="font-size: 44px; font-family: Impact; fill: rgb(165, 81, 148);" transform="translate(-234,-18)rotate(-30.00000044529205)scale(0.9999999865388264,0.9999999865388264)" text-anchor="middle">want</text><text style="font-size: 46px; font-family: Impact; fill: rgb(206, 109, 189);" transform="translate(-69,-142)rotate(59.99999955470795)scale(0.9999999865388264,0.9999999865388264)" text-anchor="middle">amp</text><text style="font-size: 22px; font-family: Impact; fill: rgb(222, 158, 214);" transform="translate(-346,16)rotate(-30.00000044529205)scale(0.9999999865388264,0.9999999865388264)" text-anchor="middle">Never</text><text style="font-size: 32px; font-family: Impact; fill: rgb(107, 110, 207);" transform="translate(124,80)rotate(-59.99999955470795)scale(0.9999999865388264,0.9999999865388264)" text-anchor="middle">Day</text><text style="font-size: 47px; font-family: Impact; fill: rgb(156, 158, 222);" transform="translate(-25,-66)rotate(-59.99999955470795)scale(0.9999999865388264,0.9999999865388264)" text-anchor="middle">See</text><text style="font-size: 27px; font-family: Impact; fill: rgb(231, 203, 148);" transform="translate(213,-135)rotate(-30.00000044529205)scale(0.9999999865388264,0.9999999865388264)" text-anchor="middle">oh</text><text style="font-size: 23px; font-family: Impact; fill: rgb(132, 60, 57);" transform="translate(-198,-207)rotate(-59.99999955470795)scale(0.9999999865388264,0.9999999865388264)" text-anchor="middle">Thats</text><text style="font-size: 32px; font-family: Impact; fill: rgb(165, 81, 148);" transform="translate(173,-102)rotate(30.00000044529205)scale(0.9999999865388264,0.9999999865388264)" text-anchor="middle">new</text><text style="font-size: 23px; font-family: Impact; fill: rgb(57, 59, 121);" transform="translate(335,136)rotate(59.99999955470795)scale(0.9999999865388264,0.9999999865388264)" text-anchor="middle">really</text><text style="font-size: 22px; font-family: Impact; fill: rgb(99, 121, 57);" transform="translate(328,-82)rotate(30.000000445292052)scale(0.9999999865388264,0.9999999865388264)" text-anchor="middle">right</text><text style="font-size: 23px; font-family: Impact; fill: rgb(206, 219, 156);" transform="translate(-143,-20)rotate(-59.99999955470795)scale(0.9999999865388264,0.9999999865388264)" text-anchor="middle">life</text><text style="font-size: 32px; font-family: Impact; fill: rgb(231, 203, 148);" transform="translate(-45,137)rotate(-59.99999955470795)scale(0.9999999865388264,0.9999999865388264)" text-anchor="middle">people</text><text style="font-size: 27px; font-family: Impact; fill: rgb(181, 207, 107);" transform="translate(-273,-39)rotate(-30.00000044529205)scale(0.9999999865388264,0.9999999865388264)" text-anchor="middle">today</text><text style="font-size: 25px; font-family: Impact; fill: rgb(231, 150, 156);" transform="translate(-343,39)rotate(-30.000000445292052)scale(0.9999999865388264,0.9999999865388264)" text-anchor="middle">come</text><text style="font-size: 20px; font-family: Impact; fill: rgb(181, 207, 107);" transform="translate(393,-45)rotate(-30.00000044529205)scale(0.9999999865388264,0.9999999865388264)" text-anchor="middle">year</text><text style="font-size: 24px; font-family: Impact; fill: rgb(181, 207, 107);" transform="translate(-188,-115)rotate(-59.99999955470795)scale(0.9999999865388264,0.9999999865388264)" text-anchor="middle">th</text><text style="font-size: 23px; font-family: Impact; fill: rgb(140, 162, 82);" transform="translate(311,-160)" text-anchor="middle">fuck</text><text style="font-size: 21px; font-family: Impact; fill: rgb(206, 219, 156);" transform="translate(-341,147)rotate(30.00000044529205)scale(0.9999999865388264,0.9999999865388264)" text-anchor="middle">going</text><text style="font-size: 26px; font-family: Impact; fill: rgb(140, 109, 49);" transform="translate(-4,-49)rotate(59.99999955470795)scale(0.9999999865388264,0.9999999865388264)" text-anchor="middle">make</text><text style="font-size: 27px; font-family: Impact; fill: rgb(214, 97, 107);" transform="translate(38,161)rotate(-59.99999955470795)scale(0.9999999865388264,0.9999999865388264)" text-anchor="middle">back</text><text style="font-size: 26px; font-family: Impact; fill: rgb(181, 207, 107);" transform="translate(-245,26)rotate(-59.99999955470795)scale(0.9999999865388264,0.9999999865388264)" text-anchor="middle">still</text><text style="font-size: 21px; font-family: Impact; fill: rgb(206, 109, 189);" transform="translate(365,-50)rotate(-30.00000044529205)scale(0.9999999865388264,0.9999999865388264)" text-anchor="middle">even</text><text style="font-size: 25px; font-family: Impact; fill: rgb(222, 158, 214);" transform="translate(-295,-84)rotate(-30.00000044529205)scale(0.9999999865388264,0.9999999865388264)" text-anchor="middle">think</text><text style="font-size: 21px; font-family: Impact; fill: rgb(231, 150, 156);" transform="translate(-381,88)rotate(59.99999955470795)scale(0.9999999865388264,0.9999999865388264)" text-anchor="middle">always</text><text style="font-size: 22px; font-family: Impact; fill: rgb(107, 110, 207);" transform="translate(-89,-216)rotate(0)scale(1,1)" text-anchor="middle">way</text><text style="font-size: 30px; font-family: Impact; fill: rgb(123, 65, 115);" transform="translate(162,-6)" text-anchor="middle">youre</text><text style="font-size: 24px; font-family: Impact; fill: rgb(140, 109, 49);" transform="translate(337,96)rotate(-30.000000445292052)scale(0.9999999865388264,0.9999999865388264)" text-anchor="middle">Man</text><text style="font-size: 24px; font-family: Impact; fill: rgb(231, 203, 148);" transform="translate(315,-180)" text-anchor="middle">someone</text><text style="font-size: 32px; font-family: Impact; fill: rgb(132, 60, 57);" transform="translate(-37,17)rotate(-30.00000044529205)scale(0.9999999865388264,0.9999999865388264)" text-anchor="middle">Trump</text><text style="font-size: 42px; font-family: Impact; fill: rgb(173, 73, 74);" transform="translate(129,-63)rotate(0)scale(1,1)" text-anchor="middle">work</text><text style="font-size: 22px; font-family: Impact; fill: rgb(214, 97, 107);" transform="translate(-69,-194)rotate(-30.00000044529205)scale(0.9999999865388264,0.9999999865388264)" text-anchor="middle">take</text><text style="font-size: 23px; font-family: Impact; fill: rgb(231, 186, 82);" transform="translate(83,198)rotate(30.00000044529205)scale(0.9999999865388264,0.9999999865388264)" text-anchor="middle">Well</text><text style="font-size: 22px; font-family: Impact; fill: rgb(165, 81, 148);" transform="translate(-68,-239)rotate(59.999999554707955)scale(0.9999999865388264,0.9999999865388264)" text-anchor="middle">Thank</text><text style="font-size: 22px; font-family: Impact; fill: rgb(132, 60, 57);" transform="translate(-274,174)rotate(-59.99999955470795)scale(0.9999999865388264,0.9999999865388264)" text-anchor="middle">Ive</text><text style="font-size: 22px; font-family: Impact; fill: rgb(222, 158, 214);" transform="translate(-163,-217)" text-anchor="middle">real</text><text style="font-size: 45px; font-family: Impact; fill: rgb(82, 84, 163);" transform="translate(154,-29)rotate(0)scale(1,1)" text-anchor="middle">great</text><text style="font-size: 22px; font-family: Impact; fill: rgb(214, 97, 107);" transform="translate(61,217)rotate(59.999999554707955)scale(0.9999999865388264,0.9999999865388264)" text-anchor="middle">next</text><text style="font-size: 21px; font-family: Impact; fill: rgb(132, 60, 57);" transform="translate(-231,227)rotate(0)scale(1,1)" text-anchor="middle">ever</text><text style="font-size: 22px; font-family: Impact; fill: rgb(231, 150, 156);" transform="translate(-230,202)rotate(30.00000044529205)scale(0.9999999865388264,0.9999999865388264)" text-anchor="middle">hate</text><text style="font-size: 24px; font-family: Impact; fill: rgb(206, 219, 156);" transform="translate(305,130)rotate(59.999999554707955)scale(0.9999999865388264,0.9999999865388264)" text-anchor="middle">Stop</text><text style="font-size: 26px; font-family: Impact; fill: rgb(140, 109, 49);" transform="translate(-149,154)rotate(59.99999955470795)scale(0.9999999865388264,0.9999999865388264)" text-anchor="middle">May</text><text style="font-size: 25px; font-family: Impact; fill: rgb(231, 203, 148);" transform="translate(-331,-19)rotate(59.99999955470795)scale(0.9999999865388264,0.9999999865388264)" text-anchor="middle">Home</text><text style="font-size: 26px; font-family: Impact; fill: rgb(123, 65, 115);" transform="translate(-274,-68)rotate(-30.00000044529205)scale(0.9999999865388264,0.9999999865388264)" text-anchor="middle">best</text><text style="font-size: 22px; font-family: Impact; fill: rgb(165, 81, 148);" transform="translate(-119,-220)rotate(-59.99999955470795)scale(0.9999999865388264,0.9999999865388264)" text-anchor="middle">PLEASE</text><text style="font-size: 21px; font-family: Impact; fill: rgb(140, 162, 82);" transform="translate(42,-247)rotate(59.99999955470795)scale(0.9999999865388264,0.9999999865388264)" text-anchor="middle">keep</text><text style="font-size: 22px; font-family: Impact; fill: rgb(206, 219, 156);" transform="translate(321,-46)rotate(59.999999554707955)scale(0.9999999865388264,0.9999999865388264)" text-anchor="middle">every</text><text style="font-size: 21px; font-family: Impact; fill: rgb(231, 203, 148);" transform="translate(-130,229)rotate(-59.99999955470795)scale(0.9999999865388264,0.9999999865388264)" text-anchor="middle">hes</text><text style="font-size: 22px; font-family: Impact; fill: rgb(231, 150, 156);" transform="translate(322,-113)rotate(-30.000000445292052)scale(0.9999999865388264,0.9999999865388264)" text-anchor="middle">Tonight</text><text style="font-size: 21px; font-family: Impact; fill: rgb(123, 65, 115);" transform="translate(307,217)rotate(-30.00000044529205)scale(0.9999999865388264,0.9999999865388264)" text-anchor="middle">something</text><text style="font-size: 22px; font-family: Impact; fill: rgb(165, 81, 148);" transform="translate(-308,85)rotate(30.00000044529205)scale(0.9999999865388264,0.9999999865388264)" text-anchor="middle">week</text><text style="font-size: 36px; font-family: Impact; fill: rgb(222, 158, 214);" transform="translate(-35,-13)rotate(-30.00000044529205)scale(0.9999999865388264,0.9999999865388264)" text-anchor="middle">team</text><text style="font-size: 23px; font-family: Impact; fill: rgb(57, 59, 121);" transform="translate(214,-244)rotate(-59.999999554707955)scale(0.9999999865388264,0.9999999865388264)" text-anchor="middle">thing</text><text style="font-size: 23px; font-family: Impact; fill: rgb(156, 158, 222);" transform="translate(-55,92)rotate(-30.00000044529205)scale(0.9999999865388264,0.9999999865388264)" text-anchor="middle">w</text><text style="font-size: 34px; font-family: Impact; fill: rgb(231, 186, 82);" transform="translate(84,-188)rotate(-59.999999554707955)scale(0.9999999865388264,0.9999999865388264)" text-anchor="middle">might</text><text style="font-size: 21px; font-family: Impact; fill: rgb(173, 73, 74);" transform="translate(127,-239)rotate(59.99999955470795)scale(0.9999999865388264,0.9999999865388264)" text-anchor="middle">live</text><text style="font-size: 25px; font-family: Impact; fill: rgb(156, 158, 222);" transform="translate(292,-122)rotate(-30.00000044529205)scale(0.9999999865388264,0.9999999865388264)" text-anchor="middle">two</text><text style="font-size: 21px; font-family: Impact; fill: rgb(181, 207, 107);" transform="translate(-41,221)rotate(-59.99999955470795)scale(0.9999999865388264,0.9999999865388264)" text-anchor="middle">show</text><text style="font-size: 93px; font-family: Impact; fill: rgb(123, 65, 115);" transform="translate(23,72)rotate(30.00000044529205)scale(0.9999999865388264,0.9999999865388264)" text-anchor="middle">Job</text><text style="font-size: 87px; font-family: Impact; fill: rgb(57, 59, 121);" transform="translate(10,-75)rotate(59.99999955470795)scale(0.9999999865388264,0.9999999865388264)" text-anchor="middle">Hiring</text><text style="font-size: 64px; font-family: Impact; fill: rgb(82, 84, 163);" transform="translate(200,-158)rotate(-30.00000044529205)scale(0.9999999865388264,0.9999999865388264)" text-anchor="middle">CareerArc</text><text style="font-size: 63px; font-family: Impact; fill: rgb(107, 110, 207);" transform="translate(-139,76)rotate(0)scale(1,1)" text-anchor="middle">Jobs</text><text style="font-size: 52px; font-family: Impact; fill: rgb(156, 158, 222);" transform="translate(254,-110)rotate(-59.99999955470795)scale(0.9999999865388264,0.9999999865388264)" text-anchor="middle">latest</text><text style="font-size: 46px; font-family: Impact; fill: rgb(99, 121, 57);" transform="translate(-193,19)rotate(-59.99999955470795)scale(0.9999999865388264,0.9999999865388264)" text-anchor="middle">Click</text><text style="font-size: 45px; font-family: Impact; fill: rgb(140, 162, 82);" transform="translate(-213,-81)rotate(30.00000044529205)scale(0.9999999865388264,0.9999999865388264)" text-anchor="middle">opening</text><text style="font-size: 45px; font-family: Impact; fill: rgb(181, 207, 107);" transform="translate(-115,-138)rotate(-59.99999955470795)scale(0.9999999865388264,0.9999999865388264)" text-anchor="middle">Retail</text><text style="font-size: 41px; font-family: Impact; fill: rgb(206, 219, 156);" transform="translate(-91,97)rotate(30.00000044529205)scale(0.9999999865388264,0.9999999865388264)" text-anchor="middle">|</text><text style="font-size: 41px; font-family: Impact; fill: rgb(140, 109, 49);" transform="translate(6,106)rotate(30.000000445292052)scale(0.9999999865388264,0.9999999865388264)" text-anchor="middle">Hospitality</text><text style="font-size: 40px; font-family: Impact; fill: rgb(189, 158, 57);" transform="translate(255,-81)rotate(59.99999955470795)scale(0.9999999865388264,0.9999999865388264)" text-anchor="middle">fit</text><text style="font-size: 40px; font-family: Impact; fill: rgb(57, 59, 121);" transform="translate(161,25)rotate(0)scale(1,1)" text-anchor="middle">anyone</text><text style="font-size: 38px; font-family: Impact; fill: rgb(231, 186, 82);" transform="translate(250,-23)rotate(-30.00000044529205)scale(0.9999999865388264,0.9999999865388264)" text-anchor="middle">apply</text><text style="font-size: 38px; font-family: Impact; fill: rgb(231, 203, 148);" transform="translate(-140,113)rotate(-30.00000044529205)scale(0.9999999865388264,0.9999999865388264)" text-anchor="middle">CA</text><text style="font-size: 37px; font-family: Impact; fill: rgb(132, 60, 57);" transform="translate(184,123)rotate(59.999999554707955)scale(0.9999999865388264,0.9999999865388264)" text-anchor="middle">recommend</text><text style="font-size: 35px; font-family: Impact; fill: rgb(173, 73, 74);" transform="translate(135,131)rotate(-59.99999955470795)scale(0.9999999865388264,0.9999999865388264)" text-anchor="middle">Sales</text><text style="font-size: 34px; font-family: Impact; fill: rgb(214, 97, 107);" transform="translate(231,12)rotate(59.99999955470795)scale(0.9999999865388264,0.9999999865388264)" text-anchor="middle">TX</text><text style="font-size: 33px; font-family: Impact; fill: rgb(231, 150, 156);" transform="translate(310,19)rotate(-30.00000044529205)scale(0.9999999865388264,0.9999999865388264)" text-anchor="middle">Nursing</text><text style="font-size: 32px; font-family: Impact; fill: rgb(123, 65, 115);" transform="translate(-235,102)rotate(-30.00000044529205)scale(0.9999999865388264,0.9999999865388264)" text-anchor="middle">Health</text><text style="font-size: 32px; font-family: Impact; fill: rgb(165, 81, 148);" transform="translate(-300,-148)rotate(-30.000000445292052)scale(0.9999999865388264,0.9999999865388264)" text-anchor="middle">Veterans</text><text style="font-size: 31px; font-family: Impact; fill: rgb(206, 109, 189);" transform="translate(274,97)rotate(-59.99999955470795)scale(0.9999999865388264,0.9999999865388264)" text-anchor="middle">Manager</text><text style="font-size: 31px; font-family: Impact; fill: rgb(222, 158, 214);" transform="translate(-88,-88)rotate(-59.99999955470795)scale(0.9999999865388264,0.9999999865388264)" text-anchor="middle">Join</text><text style="font-size: 30px; font-family: Impact; fill: rgb(57, 59, 121);" transform="translate(-21,-204)rotate(-59.99999955470795)scale(0.9999999865388264,0.9999999865388264)" text-anchor="middle">View</text><text style="font-size: 30px; font-family: Impact; fill: rgb(82, 84, 163);" transform="translate(-292,141)rotate(30.000000445292052)scale(0.9999999865388264,0.9999999865388264)" text-anchor="middle">Healthcare</text><text style="font-size: 30px; font-family: Impact; fill: rgb(107, 110, 207);" transform="translate(154,-204)" text-anchor="middle">details</text><text style="font-size: 30px; font-family: Impact; fill: rgb(156, 158, 222);" transform="translate(-276,68)rotate(30.00000044529205)scale(0.9999999865388264,0.9999999865388264)" text-anchor="middle">READ</text><text style="font-size: 29px; font-family: Impact; fill: rgb(99, 121, 57);" transform="translate(-2,-233)rotate(30.00000044529205)scale(0.9999999865388264,0.9999999865388264)" text-anchor="middle">Interested</text><text style="font-size: 29px; font-family: Impact; fill: rgb(231, 150, 156);" transform="translate(-7,150)rotate(-30.000000445292052)scale(0.9999999865388264,0.9999999865388264)" text-anchor="middle">check</text><text style="font-size: 29px; font-family: Impact; fill: rgb(231, 186, 82);" transform="translate(-107,122)rotate(59.99999955470795)scale(0.9999999865388264,0.9999999865388264)" text-anchor="middle">near</text><text style="font-size: 28px; font-family: Impact; fill: rgb(140, 162, 82);" transform="translate(-125,145)rotate(59.99999955470795)scale(0.9999999865388264,0.9999999865388264)" text-anchor="middle">alert</text><text style="font-size: 28px; font-family: Impact; fill: rgb(181, 207, 107);" transform="translate(110,-172)rotate(-59.99999955470795)scale(0.9999999865388264,0.9999999865388264)" text-anchor="middle">Care</text><text style="font-size: 28px; font-family: Impact; fill: rgb(181, 207, 107);" transform="translate(-64,109)rotate(-59.99999955470795)scale(0.9999999865388264,0.9999999865388264)" text-anchor="middle">FL</text><text style="font-size: 27px; font-family: Impact; fill: rgb(206, 219, 156);" transform="translate(-172,146)rotate(-30.00000044529205)scale(0.9999999865388264,0.9999999865388264)" text-anchor="middle">NY</text><text style="font-size: 27px; font-family: Impact; fill: rgb(140, 109, 49);" transform="translate(51,191)rotate(-59.99999955470795)scale(0.9999999865388264,0.9999999865388264)" text-anchor="middle">service</text><text style="font-size: 26px; font-family: Impact; fill: rgb(189, 158, 57);" transform="translate(-188,173)rotate(30.00000044529205)scale(0.9999999865388264,0.9999999865388264)" text-anchor="middle">Nurse</text><text style="font-size: 26px; font-family: Impact; fill: rgb(231, 186, 82);" transform="translate(-296,34)rotate(-59.999999554707955)scale(0.9999999865388264,0.9999999865388264)" text-anchor="middle">SONIC</text><text style="font-size: 26px; font-family: Impact; fill: rgb(231, 203, 148);" transform="translate(273,163)rotate(30.000000445292052)scale(0.9999999865388264,0.9999999865388264)" text-anchor="middle">Store</text><text style="font-size: 25px; font-family: Impact; fill: rgb(132, 60, 57);" transform="translate(-274,-214)rotate(-30.000000445292052)scale(0.9999999865388264,0.9999999865388264)" text-anchor="middle">Professional</text><text style="font-size: 25px; font-family: Impact; fill: rgb(173, 73, 74);" transform="translate(-113,-53)rotate(-59.99999955470795)scale(0.9999999865388264,0.9999999865388264)" text-anchor="middle">PA</text><text style="font-size: 25px; font-family: Impact; fill: rgb(214, 97, 107);" transform="translate(-212,185)rotate(30.00000044529205)scale(0.9999999865388264,0.9999999865388264)" text-anchor="middle">pm</text><text style="font-size: 24px; font-family: Impact; fill: rgb(231, 150, 156);" transform="translate(305,91)rotate(-59.99999955470795)scale(0.9999999865388264,0.9999999865388264)" text-anchor="middle">Assistant</text><text style="font-size: 24px; font-family: Impact; fill: rgb(123, 65, 115);" transform="translate(-159,222)rotate(-30.00000044529205)scale(0.9999999865388264,0.9999999865388264)" text-anchor="middle">CustomerService</text><text style="font-size: 24px; font-family: Impact; fill: rgb(140, 162, 82);" transform="translate(285,-59)rotate(59.99999955470795)scale(0.9999999865388264,0.9999999865388264)" text-anchor="middle">RN</text><text style="font-size: 23px; font-family: Impact; fill: rgb(165, 81, 148);" transform="translate(258,220)rotate(-30.00000044529205)scale(0.9999999865388264,0.9999999865388264)" text-anchor="middle">Transportation</text><text style="font-size: 23px; font-family: Impact; fill: rgb(206, 109, 189);" transform="translate(-235,129)rotate(-30.00000044529205)scale(0.9999999865388264,0.9999999865388264)" text-anchor="middle">NJ</text><text style="font-size: 23px; font-family: Impact; fill: rgb(222, 158, 214);" transform="translate(378,177)rotate(0)scale(1,1)" text-anchor="middle">Registered</text><text style="font-size: 23px; font-family: Impact; fill: rgb(57, 59, 121);" transform="translate(-78,210)rotate(-30.00000044529205)scale(0.9999999865388264,0.9999999865388264)" text-anchor="middle">Medical</text><text style="font-size: 22px; font-family: Impact; fill: rgb(82, 84, 163);" transform="translate(-275,218)rotate(-59.99999955470795)scale(0.9999999865388264,0.9999999865388264)" text-anchor="middle">Accounting</text><text style="font-size: 22px; font-family: Impact; fill: rgb(107, 110, 207);" transform="translate(-326,208)rotate(-59.99999955470795)scale(0.9999999865388264,0.9999999865388264)" text-anchor="middle">BusinessMgmt</text><text style="font-size: 22px; font-family: Impact; fill: rgb(156, 158, 222);" transform="translate(115,45)rotate(0)scale(1,1)" text-anchor="middle">MA</text><text style="font-size: 22px; font-family: Impact; fill: rgb(99, 121, 57);" transform="translate(-324,-100)rotate(-59.99999955470795)scale(0.9999999865388264,0.9999999865388264)" text-anchor="middle">traffic</text><text style="font-size: 22px; font-family: Impact; fill: rgb(181, 207, 107);" transform="translate(92,114)rotate(30.00000044529205)scale(0.9999999865388264,0.9999999865388264)" text-anchor="middle">via</text><text style="font-size: 22px; font-family: Impact; fill: rgb(140, 162, 82);" transform="translate(-13,219)rotate(59.99999955470795)scale(0.9999999865388264,0.9999999865388264)" text-anchor="middle">PART</text><text style="font-size: 22px; font-family: Impact; fill: rgb(140, 162, 82);" transform="translate(306,-251)rotate(59.99999955470795)scale(0.9999999865388264,0.9999999865388264)" text-anchor="middle">Associate</text><text style="font-size: 22px; font-family: Impact; fill: rgb(181, 207, 107);" transform="translate(365,-221)rotate(59.99999955470795)scale(0.9999999865388264,0.9999999865388264)" text-anchor="middle">Manufacturing</text><text style="font-size: 22px; font-family: Impact; fill: rgb(206, 219, 156);" transform="translate(-186,200)rotate(59.999999554707955)scale(0.9999999865388264,0.9999999865388264)" text-anchor="middle">GA</text><text style="font-size: 22px; font-family: Impact; fill: rgb(123, 65, 115);" transform="translate(-175,-29)rotate(0)scale(1,1)" text-anchor="middle">st</text><text style="font-size: 22px; font-family: Impact; fill: rgb(140, 109, 49);" transform="translate(225,42)rotate(-30.00000044529205)scale(0.9999999865388264,0.9999999865388264)" text-anchor="middle">Rd</text><text style="font-size: 21px; font-family: Impact; fill: rgb(206, 219, 156);" transform="translate(-60,-88)rotate(-30.00000044529205)scale(0.9999999865388264,0.9999999865388264)" text-anchor="middle">Big</text><text style="font-size: 21px; font-family: Impact; fill: rgb(189, 158, 57);" transform="translate(227,117)rotate(-30.000000445292052)scale(0.9999999865388264,0.9999999865388264)" text-anchor="middle">NC</text><text style="font-size: 21px; font-family: Impact; fill: rgb(231, 186, 82);" transform="translate(351,25)rotate(0)scale(1,1)" text-anchor="middle">game</text><text style="font-size: 21px; font-family: Impact; fill: rgb(231, 186, 82);" transform="translate(-13,126)rotate(-30.000000445292052)scale(0.9999999865388264,0.9999999865388264)" text-anchor="middle">SC</text><text style="font-size: 21px; font-family: Impact; fill: rgb(231, 203, 148);" transform="translate(-222,-71)rotate(-59.99999955470795)scale(0.9999999865388264,0.9999999865388264)" text-anchor="middle">AZ</text><text style="font-size: 21px; font-family: Impact; fill: rgb(132, 60, 57);" transform="translate(340,243)rotate(-59.99999955470795)scale(0.9999999865388264,0.9999999865388264)" text-anchor="middle">Customer</text><text style="font-size: 21px; font-family: Impact; fill: rgb(82, 84, 163);" transform="translate(350,-93)rotate(30.00000044529205)scale(0.9999999865388264,0.9999999865388264)" text-anchor="middle">little</text><text style="font-size: 21px; font-family: Impact; fill: rgb(173, 73, 74);" transform="translate(389,-120)rotate(0)scale(1,1)" text-anchor="middle">Shift</text><text style="font-size: 21px; font-family: Impact; fill: rgb(206, 219, 156);" transform="translate(364,-18)rotate(30.00000044529205)scale(0.9999999865388264,0.9999999865388264)" text-anchor="middle">help</text><text style="font-size: 21px; font-family: Impact; fill: rgb(214, 97, 107);" transform="translate(-301,-123)rotate(30.00000044529205)scale(0.9999999865388264,0.9999999865388264)" text-anchor="middle">WI</text><text style="font-size: 21px; font-family: Impact; fill: rgb(82, 84, 163);" transform="translate(364,117)rotate(30.00000044529205)scale(0.9999999865388264,0.9999999865388264)" text-anchor="middle">world</text><text style="font-size: 21px; font-family: Impact; fill: rgb(231, 150, 156);" transform="translate(-366,-66)rotate(30.00000044529205)scale(0.9999999865388264,0.9999999865388264)" text-anchor="middle">Center</text><text style="font-size: 20px; font-family: Impact; fill: rgb(123, 65, 115);" transform="translate(356,78)rotate(59.999999554707955)scale(0.9999999865388264,0.9999999865388264)" text-anchor="middle">CVS</text><text style="font-size: 20px; font-family: Impact; fill: rgb(165, 81, 148);" transform="translate(384,56)rotate(30.00000044529205)scale(0.9999999865388264,0.9999999865388264)" text-anchor="middle">general</text><text style="font-size: 20px; font-family: Impact; fill: rgb(140, 109, 49);" transform="translate(139,-98)rotate(30.000000445292052)scale(0.9999999865388264,0.9999999865388264)" text-anchor="middle">OK</text><text style="font-size: 20px; font-family: Impact; fill: rgb(206, 109, 189);" transform="translate(-141,-246)rotate(-30.00000044529205)scale(0.9999999865388264,0.9999999865388264)" text-anchor="middle">Media</text><text style="font-size: 20px; font-family: Impact; fill: rgb(222, 158, 214);" transform="translate(-72,-31)rotate(59.99999955470795)scale(0.9999999865388264,0.9999999865388264)" text-anchor="middle">IL</text><text style="font-size: 20px; font-family: Impact; fill: rgb(57, 59, 121);" transform="translate(-188,-138)rotate(59.99999955470795)scale(0.9999999865388264,0.9999999865388264)" text-anchor="middle">WA</text></g></svg>